REM DIRINDEX 1\2\5,1\2\6,1\3\7,1\3\8,1\4\9,1\4\10
REM DIRNAME folder01,folder02,folder03,folder04,folder05,folder06,folder07,folder08,folder09,folder10
TITLE ""
FILE "Track23.mp3" MP3
  TRACK 01 AUDIO
    TITLE "8:cjc079_0675"
    INDEX 01 00:00:00
  TRACK 02 AUDIO
    TITLE "8:cjc079_0676"
    INDEX 01 00:02:42
  TRACK 03 AUDIO
    TITLE "7:cjc079_0677"
    INDEX 01 00:04:33
  TRACK 04 AUDIO
    TITLE "0:"
    INDEX 01 00:05:52
  TRACK 05 AUDIO
    TITLE "7:cjc079_0678"
    INDEX 01 00:06:22
  TRACK 06 AUDIO
    TITLE "0:"
    INDEX 01 00:07:43
  TRACK 07 AUDIO
    TITLE "7:cjc079_0679"
    INDEX 01 00:09:12
  TRACK 08 AUDIO
    TITLE "0:"
    INDEX 01 00:10:29
  TRACK 09 AUDIO
    TITLE "7:cjc079_0680"
    INDEX 01 00:10:72
  TRACK 10 AUDIO
    TITLE "0:"
    INDEX 01 00:12:16
  TRACK 11 AUDIO
    TITLE "7:cjc079_0681"
    INDEX 01 00:13:61
  TRACK 12 AUDIO
    TITLE "0:"
    INDEX 01 00:14:72
  TRACK 13 AUDIO
    TITLE "7:cjc079_0682"
    INDEX 01 00:15:42
  TRACK 14 AUDIO
    TITLE "0:"
    INDEX 01 00:16:53
  TRACK 15 AUDIO
    TITLE "7:cjc079_0683"
    INDEX 01 00:18:23
  TRACK 16 AUDIO
    TITLE "0:"
    INDEX 01 00:19:46
  TRACK 17 AUDIO
    TITLE "7:cjc079_0684"
    INDEX 01 00:20:16
  TRACK 18 AUDIO
    TITLE "0:"
    INDEX 01 00:21:37
  TRACK 19 AUDIO
    TITLE "8:cjc079_0685"
    INDEX 01 00:23:08
  TRACK 20 AUDIO
    TITLE "7:cjc079_0686"
    INDEX 01 00:25:21
  TRACK 21 AUDIO
    TITLE "0:"
    INDEX 01 00:26:38
  TRACK 22 AUDIO
    TITLE "7:cjc079_0687"
    INDEX 01 00:27:06
  TRACK 23 AUDIO
    TITLE "0:"
    INDEX 01 00:28:25
  TRACK 24 AUDIO
    TITLE "7:cjc079_0688"
    INDEX 01 00:29:72
  TRACK 25 AUDIO
    TITLE "0:"
    INDEX 01 00:31:18
  TRACK 26 AUDIO
    TITLE "7:cjc079_0689"
    INDEX 01 00:31:65
  TRACK 27 AUDIO
    TITLE "0:"
    INDEX 01 00:33:11
  TRACK 28 AUDIO
    TITLE "7:cjc079_0690"
    INDEX 01 00:34:55
  TRACK 29 AUDIO
    TITLE "0:"
    INDEX 01 00:36:07
  TRACK 30 AUDIO
    TITLE "7:cjc079_0691"
    INDEX 01 00:36:50
  TRACK 31 AUDIO
    TITLE "0:"
    INDEX 01 00:38:00
  TRACK 32 AUDIO
    TITLE "7:cjc079_0692"
    INDEX 01 00:39:47
  TRACK 33 AUDIO
    TITLE "0:"
    INDEX 01 00:40:66
  TRACK 34 AUDIO
    TITLE "7:cjc079_0693"
    INDEX 01 00:41:36
  TRACK 35 AUDIO
    TITLE "0:"
    INDEX 01 00:42:55
  TRACK 36 AUDIO
    TITLE "8:cjc079_0694"
    INDEX 01 00:44:26
  TRACK 37 AUDIO
    TITLE "7:cjc079_0695"
    INDEX 01 00:46:27
  TRACK 38 AUDIO
    TITLE "0:"
    INDEX 01 00:47:56
  TRACK 39 AUDIO
    TITLE "7:cjc079_0696"
    INDEX 01 00:48:30
  TRACK 40 AUDIO
    TITLE "0:"
    INDEX 01 00:49:57
  TRACK 41 AUDIO
    TITLE "7:cjc079_0697"
    INDEX 01 00:51:28
  TRACK 42 AUDIO
    TITLE "0:"
    INDEX 01 00:52:47
  TRACK 43 AUDIO
    TITLE "7:cjc079_0698"
    INDEX 01 00:53:17
  TRACK 44 AUDIO
    TITLE "0:"
    INDEX 01 00:54:36
  TRACK 45 AUDIO
    TITLE "7:cjc079_0699"
    INDEX 01 00:56:08
  TRACK 46 AUDIO
    TITLE "0:"
    INDEX 01 00:57:25
  TRACK 47 AUDIO
    TITLE "7:cjc079_0700"
    INDEX 01 00:57:70
  TRACK 48 AUDIO
    TITLE "0:"
    INDEX 01 00:59:12
  TRACK 49 AUDIO
    TITLE "7:cjc079_0701"
    INDEX 01 01:00:57
  TRACK 50 AUDIO
    TITLE "0:"
    INDEX 01 01:02:14
  TRACK 51 AUDIO
    TITLE "7:cjc079_0702"
    INDEX 01 01:02:57
  TRACK 52 AUDIO
    TITLE "0:"
    INDEX 01 01:04:15
  TRACK 53 AUDIO
    TITLE "8:cjc079_0703"
    INDEX 01 01:05:58
  TRACK 54 AUDIO
    TITLE "7:cjc079_0704"
    INDEX 01 01:07:70
  TRACK 55 AUDIO
    TITLE "0:"
    INDEX 01 01:09:26
  TRACK 56 AUDIO
    TITLE "7:cjc079_0705"
    INDEX 01 01:09:71
  TRACK 57 AUDIO
    TITLE "0:"
    INDEX 01 01:11:25
  TRACK 58 AUDIO
    TITLE "7:cjc079_0706"
    INDEX 01 01:12:70
  TRACK 59 AUDIO
    TITLE "0:"
    INDEX 01 01:14:23
  TRACK 60 AUDIO
    TITLE "7:cjc079_0707"
    INDEX 01 01:14:66
  TRACK 61 AUDIO
    TITLE "0:"
    INDEX 01 01:16:22
  TRACK 62 AUDIO
    TITLE "7:cjc079_0708"
    INDEX 01 01:17:69
  TRACK 63 AUDIO
    TITLE "0:"
    INDEX 01 01:19:27
  TRACK 64 AUDIO
    TITLE "7:cjc079_0709"
    INDEX 01 01:19:72
  TRACK 65 AUDIO
    TITLE "0:"
    INDEX 01 01:21:29
  TRACK 66 AUDIO
    TITLE "7:cjc079_0710"
    INDEX 01 01:22:74
  TRACK 67 AUDIO
    TITLE "0:"
    INDEX 01 01:24:20
  TRACK 68 AUDIO
    TITLE "7:cjc079_0711"
    INDEX 01 01:24:61
  TRACK 69 AUDIO
    TITLE "0:"
    INDEX 01 01:26:07
